<svg width="746" height="849" viewBox="0 0 746 849" fill="none" xmlns="http://www.w3.org/2000/svg">
<rect width="746" height="849" fill="#131C1D"/>
<path d="M67.7336 239.76L50.5736 233.04V230.4L67.7336 223.68V226.52L59.2936 229.64L53.9336 231.64V231.8L59.2936 233.8L67.7336 236.92V239.76ZM77.6364 245.48C76.2497 245.48 74.9297 245.227 73.6764 244.72C72.4231 244.213 71.3297 243.573 70.3964 242.8L72.0364 240.6C72.8897 241.293 73.7564 241.853 74.6364 242.28C75.5431 242.707 76.5831 242.92 77.7564 242.92C79.0364 242.92 79.9964 242.627 80.6364 242.04C81.2764 241.453 81.5964 240.733 81.5964 239.88C81.5964 239.373 81.4631 238.933 81.1964 238.56C80.9297 238.187 80.5831 237.867 80.1564 237.6C79.7564 237.307 79.2897 237.053 78.7564 236.84C78.2231 236.627 77.6897 236.413 77.1564 236.2C76.4631 235.96 75.7697 235.693 75.0764 235.4C74.3831 235.08 73.7564 234.707 73.1964 234.28C72.6631 233.827 72.2231 233.307 71.8764 232.72C71.5297 232.133 71.3564 231.427 71.3564 230.6C71.3564 229.827 71.5031 229.107 71.7964 228.44C72.1164 227.747 72.5564 227.16 73.1164 226.68C73.7031 226.173 74.4097 225.787 75.2364 225.52C76.0631 225.227 76.9964 225.08 78.0364 225.08C79.2631 225.08 80.3831 225.293 81.3964 225.72C82.4364 226.147 83.3297 226.667 84.0764 227.28L82.5164 229.36C81.8497 228.853 81.1564 228.44 80.4364 228.12C79.7164 227.8 78.9297 227.64 78.0764 227.64C76.8497 227.64 75.9431 227.92 75.3564 228.48C74.7964 229.04 74.5164 229.693 74.5164 230.44C74.5164 230.893 74.6364 231.293 74.8764 231.64C75.1164 231.96 75.4364 232.253 75.8364 232.52C76.2364 232.76 76.6897 232.987 77.1964 233.2C77.7297 233.387 78.2764 233.587 78.8364 233.8C79.5297 234.067 80.2231 234.347 80.9164 234.64C81.6364 234.933 82.2764 235.307 82.8364 235.76C83.3964 236.187 83.8497 236.72 84.1964 237.36C84.5697 238 84.7564 238.773 84.7564 239.68C84.7564 240.48 84.5964 241.227 84.2764 241.92C83.9831 242.613 83.5297 243.227 82.9164 243.76C82.3297 244.293 81.5831 244.707 80.6764 245C79.7964 245.32 78.7831 245.48 77.6364 245.48ZM97.3742 245.48C96.0676 245.48 94.8409 245.253 93.6942 244.8C92.5742 244.32 91.5876 243.653 90.7342 242.8C89.9076 241.92 89.2542 240.853 88.7742 239.6C88.2942 238.347 88.0542 236.92 88.0542 235.32C88.0542 233.72 88.2942 232.293 88.7742 231.04C89.2809 229.76 89.9342 228.68 90.7342 227.8C91.5609 226.92 92.4942 226.253 93.5342 225.8C94.5742 225.32 95.6542 225.08 96.7742 225.08C98.0009 225.08 99.0942 225.293 100.054 225.72C101.041 226.147 101.854 226.76 102.494 227.56C103.161 228.36 103.668 229.32 104.014 230.44C104.361 231.56 104.534 232.813 104.534 234.2C104.534 234.547 104.521 234.893 104.494 235.24C104.494 235.56 104.468 235.84 104.414 236.08H91.2942C91.4276 238.16 92.0676 239.813 93.2142 241.04C94.3876 242.24 95.9076 242.84 97.7742 242.84C98.7076 242.84 99.5609 242.707 100.334 242.44C101.134 242.147 101.894 241.773 102.614 241.32L103.774 243.48C102.921 244.013 101.974 244.48 100.934 244.88C99.8942 245.28 98.7076 245.48 97.3742 245.48ZM91.2542 233.72H101.654C101.654 231.747 101.228 230.253 100.374 229.24C99.5476 228.2 98.3742 227.68 96.8542 227.68C96.1609 227.68 95.4942 227.813 94.8542 228.08C94.2409 228.347 93.6809 228.747 93.1742 229.28C92.6676 229.787 92.2409 230.413 91.8942 231.16C91.5742 231.907 91.3609 232.76 91.2542 233.72ZM117.198 245.48C115.918 245.48 114.718 245.253 113.598 244.8C112.478 244.347 111.505 243.693 110.678 242.84C109.878 241.96 109.238 240.893 108.758 239.64C108.305 238.36 108.078 236.92 108.078 235.32C108.078 233.693 108.331 232.253 108.838 231C109.345 229.72 110.025 228.64 110.878 227.76C111.731 226.88 112.718 226.213 113.838 225.76C114.985 225.307 116.185 225.08 117.438 225.08C118.718 225.08 119.811 225.307 120.718 225.76C121.625 226.213 122.425 226.747 123.118 227.36L121.438 229.52C120.878 229.013 120.278 228.6 119.638 228.28C119.025 227.96 118.331 227.8 117.558 227.8C116.678 227.8 115.865 227.987 115.118 228.36C114.371 228.707 113.731 229.213 113.198 229.88C112.665 230.547 112.238 231.347 111.918 232.28C111.625 233.187 111.478 234.2 111.478 235.32C111.478 236.44 111.625 237.453 111.918 238.36C112.211 239.267 112.611 240.053 113.118 240.72C113.651 241.36 114.291 241.867 115.038 242.24C115.785 242.587 116.598 242.76 117.478 242.76C118.385 242.76 119.211 242.573 119.958 242.2C120.731 241.8 121.425 241.333 122.038 240.8L123.478 243C122.598 243.773 121.625 244.387 120.558 244.84C119.491 245.267 118.371 245.48 117.198 245.48ZM133.67 245.48C132.63 245.48 131.75 245.32 131.03 245C130.336 244.68 129.763 244.24 129.31 243.68C128.883 243.12 128.576 242.44 128.39 241.64C128.203 240.84 128.11 239.96 128.11 239V228.24H125.23V225.76L128.27 225.56L128.67 220.12H131.43V225.56H136.67V228.24H131.43V239.04C131.43 240.24 131.643 241.173 132.07 241.84C132.523 242.48 133.31 242.8 134.43 242.8C134.776 242.8 135.15 242.747 135.55 242.64C135.95 242.533 136.31 242.413 136.63 242.28L137.27 244.76C136.736 244.947 136.15 245.107 135.51 245.24C134.896 245.4 134.283 245.48 133.67 245.48ZM141.245 245V225.56H144.525V245H141.245ZM142.925 221.56C142.285 221.56 141.738 221.36 141.285 220.96C140.858 220.56 140.645 220.053 140.645 219.44C140.645 218.8 140.858 218.293 141.285 217.92C141.738 217.52 142.285 217.32 142.925 217.32C143.565 217.32 144.098 217.52 144.525 217.92C144.978 218.293 145.205 218.8 145.205 219.44C145.205 220.053 144.978 220.56 144.525 220.96C144.098 221.36 143.565 221.56 142.925 221.56ZM158.829 245.48C157.629 245.48 156.482 245.253 155.389 244.8C154.322 244.347 153.376 243.693 152.549 242.84C151.722 241.96 151.056 240.893 150.549 239.64C150.069 238.36 149.829 236.92 149.829 235.32C149.829 233.693 150.069 232.253 150.549 231C151.056 229.72 151.722 228.64 152.549 227.76C153.376 226.88 154.322 226.213 155.389 225.76C156.482 225.307 157.629 225.08 158.829 225.08C160.029 225.08 161.162 225.307 162.229 225.76C163.322 226.213 164.282 226.88 165.109 227.76C165.936 228.64 166.589 229.72 167.069 231C167.576 232.253 167.829 233.693 167.829 235.32C167.829 236.92 167.576 238.36 167.069 239.64C166.589 240.893 165.936 241.96 165.109 242.84C164.282 243.693 163.322 244.347 162.229 244.8C161.162 245.253 160.029 245.48 158.829 245.48ZM158.829 242.76C159.656 242.76 160.416 242.587 161.109 242.24C161.802 241.867 162.389 241.36 162.869 240.72C163.376 240.053 163.762 239.267 164.029 238.36C164.296 237.453 164.429 236.44 164.429 235.32C164.429 234.2 164.296 233.187 164.029 232.28C163.762 231.347 163.376 230.547 162.869 229.88C162.389 229.213 161.802 228.707 161.109 228.36C160.416 227.987 159.656 227.8 158.829 227.8C158.002 227.8 157.242 227.987 156.549 228.36C155.856 228.707 155.256 229.213 154.749 229.88C154.269 230.547 153.896 231.347 153.629 232.28C153.362 233.187 153.229 234.2 153.229 235.32C153.229 236.44 153.362 237.453 153.629 238.36C153.896 239.267 154.269 240.053 154.749 240.72C155.256 241.36 155.856 241.867 156.549 242.24C157.242 242.587 158.002 242.76 158.829 242.76ZM173.129 245V225.56H175.849L176.129 228.36H176.249C177.182 227.427 178.155 226.653 179.169 226.04C180.209 225.4 181.409 225.08 182.769 225.08C184.822 225.08 186.315 225.72 187.249 227C188.209 228.28 188.689 230.173 188.689 232.68V245H185.409V233.12C185.409 231.28 185.115 229.96 184.529 229.16C183.942 228.333 183.009 227.92 181.729 227.92C180.715 227.92 179.822 228.173 179.049 228.68C178.275 229.187 177.395 229.933 176.409 230.92V245H173.129ZM193.264 239.76V236.92L201.704 233.8L207.064 231.8V231.64L201.704 229.64L193.264 226.52V223.68L210.424 230.4V233.04L193.264 239.76Z" fill="#FFC661"/>
<path d="M71.7336 677.76L54.5736 671.04V668.4L71.7336 661.68V664.52L63.2936 667.64L57.9336 669.64V669.8L63.2936 671.8L71.7336 674.92V677.76ZM81.6364 683.48C80.2497 683.48 78.9297 683.227 77.6764 682.72C76.4231 682.213 75.3297 681.573 74.3964 680.8L76.0364 678.6C76.8897 679.293 77.7564 679.853 78.6364 680.28C79.5431 680.707 80.5831 680.92 81.7564 680.92C83.0364 680.92 83.9964 680.627 84.6364 680.04C85.2764 679.453 85.5964 678.733 85.5964 677.88C85.5964 677.373 85.4631 676.933 85.1964 676.56C84.9297 676.187 84.5831 675.867 84.1564 675.6C83.7564 675.307 83.2897 675.053 82.7564 674.84C82.2231 674.627 81.6897 674.413 81.1564 674.2C80.4631 673.96 79.7697 673.693 79.0764 673.4C78.3831 673.08 77.7564 672.707 77.1964 672.28C76.6631 671.827 76.2231 671.307 75.8764 670.72C75.5297 670.133 75.3564 669.427 75.3564 668.6C75.3564 667.827 75.5031 667.107 75.7964 666.44C76.1164 665.747 76.5564 665.16 77.1164 664.68C77.7031 664.173 78.4097 663.787 79.2364 663.52C80.0631 663.227 80.9964 663.08 82.0364 663.08C83.2631 663.08 84.3831 663.293 85.3964 663.72C86.4364 664.147 87.3297 664.667 88.0764 665.28L86.5164 667.36C85.8497 666.853 85.1564 666.44 84.4364 666.12C83.7164 665.8 82.9297 665.64 82.0764 665.64C80.8497 665.64 79.9431 665.92 79.3564 666.48C78.7964 667.04 78.5164 667.693 78.5164 668.44C78.5164 668.893 78.6364 669.293 78.8764 669.64C79.1164 669.96 79.4364 670.253 79.8364 670.52C80.2364 670.76 80.6897 670.987 81.1964 671.2C81.7297 671.387 82.2764 671.587 82.8364 671.8C83.5297 672.067 84.2231 672.347 84.9164 672.64C85.6364 672.933 86.2764 673.307 86.8364 673.76C87.3964 674.187 87.8497 674.72 88.1964 675.36C88.5697 676 88.7564 676.773 88.7564 677.68C88.7564 678.48 88.5964 679.227 88.2764 679.92C87.9831 680.613 87.5297 681.227 86.9164 681.76C86.3297 682.293 85.5831 682.707 84.6764 683C83.7964 683.32 82.7831 683.48 81.6364 683.48ZM101.374 683.48C100.068 683.48 98.8409 683.253 97.6942 682.8C96.5742 682.32 95.5876 681.653 94.7342 680.8C93.9076 679.92 93.2542 678.853 92.7742 677.6C92.2942 676.347 92.0542 674.92 92.0542 673.32C92.0542 671.72 92.2942 670.293 92.7742 669.04C93.2809 667.76 93.9342 666.68 94.7342 665.8C95.5609 664.92 96.4942 664.253 97.5342 663.8C98.5742 663.32 99.6542 663.08 100.774 663.08C102.001 663.08 103.094 663.293 104.054 663.72C105.041 664.147 105.854 664.76 106.494 665.56C107.161 666.36 107.668 667.32 108.014 668.44C108.361 669.56 108.534 670.813 108.534 672.2C108.534 672.547 108.521 672.893 108.494 673.24C108.494 673.56 108.468 673.84 108.414 674.08H95.2942C95.4276 676.16 96.0676 677.813 97.2142 679.04C98.3876 680.24 99.9076 680.84 101.774 680.84C102.708 680.84 103.561 680.707 104.334 680.44C105.134 680.147 105.894 679.773 106.614 679.32L107.774 681.48C106.921 682.013 105.974 682.48 104.934 682.88C103.894 683.28 102.708 683.48 101.374 683.48ZM95.2542 671.72H105.654C105.654 669.747 105.228 668.253 104.374 667.24C103.548 666.2 102.374 665.68 100.854 665.68C100.161 665.68 99.4942 665.813 98.8542 666.08C98.2409 666.347 97.6809 666.747 97.1742 667.28C96.6676 667.787 96.2409 668.413 95.8942 669.16C95.5742 669.907 95.3609 670.76 95.2542 671.72ZM121.198 683.48C119.918 683.48 118.718 683.253 117.598 682.8C116.478 682.347 115.505 681.693 114.678 680.84C113.878 679.96 113.238 678.893 112.758 677.64C112.305 676.36 112.078 674.92 112.078 673.32C112.078 671.693 112.331 670.253 112.838 669C113.345 667.72 114.025 666.64 114.878 665.76C115.731 664.88 116.718 664.213 117.838 663.76C118.985 663.307 120.185 663.08 121.438 663.08C122.718 663.08 123.811 663.307 124.718 663.76C125.625 664.213 126.425 664.747 127.118 665.36L125.438 667.52C124.878 667.013 124.278 666.6 123.638 666.28C123.025 665.96 122.331 665.8 121.558 665.8C120.678 665.8 119.865 665.987 119.118 666.36C118.371 666.707 117.731 667.213 117.198 667.88C116.665 668.547 116.238 669.347 115.918 670.28C115.625 671.187 115.478 672.2 115.478 673.32C115.478 674.44 115.625 675.453 115.918 676.36C116.211 677.267 116.611 678.053 117.118 678.72C117.651 679.36 118.291 679.867 119.038 680.24C119.785 680.587 120.598 680.76 121.478 680.76C122.385 680.76 123.211 680.573 123.958 680.2C124.731 679.8 125.425 679.333 126.038 678.8L127.478 681C126.598 681.773 125.625 682.387 124.558 682.84C123.491 683.267 122.371 683.48 121.198 683.48ZM137.67 683.48C136.63 683.48 135.75 683.32 135.03 683C134.336 682.68 133.763 682.24 133.31 681.68C132.883 681.12 132.576 680.44 132.39 679.64C132.203 678.84 132.11 677.96 132.11 677V666.24H129.23V663.76L132.27 663.56L132.67 658.12H135.43V663.56H140.67V666.24H135.43V677.04C135.43 678.24 135.643 679.173 136.07 679.84C136.523 680.48 137.31 680.8 138.43 680.8C138.776 680.8 139.15 680.747 139.55 680.64C139.95 680.533 140.31 680.413 140.63 680.28L141.27 682.76C140.736 682.947 140.15 683.107 139.51 683.24C138.896 683.4 138.283 683.48 137.67 683.48ZM145.245 683V663.56H148.525V683H145.245ZM146.925 659.56C146.285 659.56 145.738 659.36 145.285 658.96C144.858 658.56 144.645 658.053 144.645 657.44C144.645 656.8 144.858 656.293 145.285 655.92C145.738 655.52 146.285 655.32 146.925 655.32C147.565 655.32 148.098 655.52 148.525 655.92C148.978 656.293 149.205 656.8 149.205 657.44C149.205 658.053 148.978 658.56 148.525 658.96C148.098 659.36 147.565 659.56 146.925 659.56ZM162.829 683.48C161.629 683.48 160.482 683.253 159.389 682.8C158.322 682.347 157.376 681.693 156.549 680.84C155.722 679.96 155.056 678.893 154.549 677.64C154.069 676.36 153.829 674.92 153.829 673.32C153.829 671.693 154.069 670.253 154.549 669C155.056 667.72 155.722 666.64 156.549 665.76C157.376 664.88 158.322 664.213 159.389 663.76C160.482 663.307 161.629 663.08 162.829 663.08C164.029 663.08 165.162 663.307 166.229 663.76C167.322 664.213 168.282 664.88 169.109 665.76C169.936 666.64 170.589 667.72 171.069 669C171.576 670.253 171.829 671.693 171.829 673.32C171.829 674.92 171.576 676.36 171.069 677.64C170.589 678.893 169.936 679.96 169.109 680.84C168.282 681.693 167.322 682.347 166.229 682.8C165.162 683.253 164.029 683.48 162.829 683.48ZM162.829 680.76C163.656 680.76 164.416 680.587 165.109 680.24C165.802 679.867 166.389 679.36 166.869 678.72C167.376 678.053 167.762 677.267 168.029 676.36C168.296 675.453 168.429 674.44 168.429 673.32C168.429 672.2 168.296 671.187 168.029 670.28C167.762 669.347 167.376 668.547 166.869 667.88C166.389 667.213 165.802 666.707 165.109 666.36C164.416 665.987 163.656 665.8 162.829 665.8C162.002 665.8 161.242 665.987 160.549 666.36C159.856 666.707 159.256 667.213 158.749 667.88C158.269 668.547 157.896 669.347 157.629 670.28C157.362 671.187 157.229 672.2 157.229 673.32C157.229 674.44 157.362 675.453 157.629 676.36C157.896 677.267 158.269 678.053 158.749 678.72C159.256 679.36 159.856 679.867 160.549 680.24C161.242 680.587 162.002 680.76 162.829 680.76ZM177.129 683V663.56H179.849L180.129 666.36H180.249C181.182 665.427 182.155 664.653 183.169 664.04C184.209 663.4 185.409 663.08 186.769 663.08C188.822 663.08 190.315 663.72 191.249 665C192.209 666.28 192.689 668.173 192.689 670.68V683H189.409V671.12C189.409 669.28 189.115 667.96 188.529 667.16C187.942 666.333 187.009 665.92 185.729 665.92C184.715 665.92 183.822 666.173 183.049 666.68C182.275 667.187 181.395 667.933 180.409 668.92V683H177.129ZM197.264 677.76V674.92L205.704 671.8L211.064 669.8V669.64L205.704 667.64L197.264 664.52V661.68L214.424 668.4V671.04L197.264 677.76Z" fill="#FFC661"/>
<path d="M54.9525 64.76L37.7925 58.04V55.4L54.9525 48.68V51.52L46.5125 54.64L41.1525 56.64V56.8L46.5125 58.8L54.9525 61.92V64.76ZM59.7753 70V41.52H63.0553V49.28L62.9353 53.28C63.8686 52.4 64.842 51.6533 65.8553 51.04C66.8686 50.4 68.0553 50.08 69.4153 50.08C71.4686 50.08 72.962 50.72 73.8953 52C74.8553 53.28 75.3353 55.1733 75.3353 57.68V70H72.0553V58.12C72.0553 56.28 71.762 54.96 71.1753 54.16C70.5886 53.3333 69.6553 52.92 68.3753 52.92C67.362 52.92 66.4686 53.1733 65.6953 53.68C64.922 54.1867 64.042 54.9333 63.0553 55.92V70H59.7753ZM89.5931 70.48C88.2865 70.48 87.0598 70.2533 85.9131 69.8C84.7931 69.32 83.8065 68.6533 82.9531 67.8C82.1265 66.92 81.4731 65.8533 80.9931 64.6C80.5131 63.3467 80.2731 61.92 80.2731 60.32C80.2731 58.72 80.5131 57.2933 80.9931 56.04C81.4998 54.76 82.1531 53.68 82.9531 52.8C83.7798 51.92 84.7131 51.2533 85.7531 50.8C86.7931 50.32 87.8731 50.08 88.9931 50.08C90.2198 50.08 91.3131 50.2933 92.2731 50.72C93.2598 51.1467 94.0731 51.76 94.7131 52.56C95.3798 53.36 95.8865 54.32 96.2331 55.44C96.5798 56.56 96.7531 57.8133 96.7531 59.2C96.7531 59.5467 96.7398 59.8933 96.7131 60.24C96.7131 60.56 96.6865 60.84 96.6331 61.08H83.5131C83.6465 63.16 84.2865 64.8133 85.4331 66.04C86.6065 67.24 88.1265 67.84 89.9931 67.84C90.9265 67.84 91.7798 67.7067 92.5531 67.44C93.3531 67.1467 94.1131 66.7733 94.8331 66.32L95.9931 68.48C95.1398 69.0133 94.1931 69.48 93.1531 69.88C92.1131 70.28 90.9265 70.48 89.5931 70.48ZM83.4731 58.72H93.8731C93.8731 56.7467 93.4465 55.2533 92.5931 54.24C91.7665 53.2 90.5931 52.68 89.0731 52.68C88.3798 52.68 87.7131 52.8133 87.0731 53.08C86.4598 53.3467 85.8998 53.7467 85.3931 54.28C84.8865 54.7867 84.4598 55.4133 84.1131 56.16C83.7931 56.9067 83.5798 57.76 83.4731 58.72ZM105.67 70.48C104.043 70.48 102.683 70 101.59 69.04C100.523 68.08 99.99 66.72 99.99 64.96C99.99 62.8267 100.937 61.2 102.83 60.08C104.723 58.9333 107.75 58.1333 111.91 57.68C111.91 57.0667 111.843 56.4667 111.71 55.88C111.603 55.2933 111.403 54.7733 111.11 54.32C110.817 53.8667 110.403 53.5067 109.87 53.24C109.363 52.9467 108.71 52.8 107.91 52.8C106.79 52.8 105.737 53.0133 104.75 53.44C103.763 53.8667 102.883 54.3467 102.11 54.88L100.83 52.6C101.737 52.0133 102.843 51.4533 104.15 50.92C105.457 50.36 106.897 50.08 108.47 50.08C110.843 50.08 112.563 50.8133 113.63 52.28C114.697 53.72 115.23 55.6533 115.23 58.08V70H112.51L112.23 67.68H112.11C111.177 68.4533 110.177 69.12 109.11 69.68C108.043 70.2133 106.897 70.48 105.67 70.48ZM106.63 67.84C107.563 67.84 108.443 67.6267 109.27 67.2C110.097 66.7467 110.977 66.0933 111.91 65.24V59.84C110.283 60.0533 108.91 60.3067 107.79 60.6C106.697 60.8933 105.803 61.24 105.11 61.64C104.443 62.04 103.95 62.5067 103.63 63.04C103.337 63.5467 103.19 64.1067 103.19 64.72C103.19 65.84 103.523 66.64 104.19 67.12C104.857 67.6 105.67 67.84 106.63 67.84ZM128.166 70.48C125.713 70.48 123.753 69.6 122.286 67.84C120.846 66.08 120.126 63.5733 120.126 60.32C120.126 58.7467 120.353 57.3333 120.806 56.08C121.286 54.8 121.913 53.72 122.686 52.84C123.46 51.96 124.353 51.28 125.366 50.8C126.38 50.32 127.446 50.08 128.566 50.08C129.686 50.08 130.66 50.28 131.486 50.68C132.313 51.08 133.153 51.6267 134.006 52.32L133.846 49V41.52H137.166V70H134.446L134.166 67.72H134.046C133.273 68.4667 132.38 69.12 131.366 69.68C130.38 70.2133 129.313 70.48 128.166 70.48ZM128.886 67.72C129.793 67.72 130.646 67.5067 131.446 67.08C132.246 66.6267 133.046 65.9467 133.846 65.04V54.88C133.02 54.1333 132.22 53.6133 131.446 53.32C130.7 53 129.926 52.84 129.126 52.84C128.353 52.84 127.62 53.0267 126.926 53.4C126.26 53.7467 125.673 54.2533 125.166 54.92C124.66 55.56 124.26 56.3333 123.966 57.24C123.673 58.1467 123.526 59.16 123.526 60.28C123.526 62.6267 123.993 64.4533 124.926 65.76C125.86 67.0667 127.18 67.72 128.886 67.72ZM151.774 70.48C150.467 70.48 149.24 70.2533 148.094 69.8C146.974 69.32 145.987 68.6533 145.134 67.8C144.307 66.92 143.654 65.8533 143.174 64.6C142.694 63.3467 142.454 61.92 142.454 60.32C142.454 58.72 142.694 57.2933 143.174 56.04C143.68 54.76 144.334 53.68 145.134 52.8C145.96 51.92 146.894 51.2533 147.934 50.8C148.974 50.32 150.054 50.08 151.174 50.08C152.4 50.08 153.494 50.2933 154.454 50.72C155.44 51.1467 156.254 51.76 156.894 52.56C157.56 53.36 158.067 54.32 158.414 55.44C158.76 56.56 158.934 57.8133 158.934 59.2C158.934 59.5467 158.92 59.8933 158.894 60.24C158.894 60.56 158.867 60.84 158.814 61.08H145.694C145.827 63.16 146.467 64.8133 147.614 66.04C148.787 67.24 150.307 67.84 152.174 67.84C153.107 67.84 153.96 67.7067 154.734 67.44C155.534 67.1467 156.294 66.7733 157.014 66.32L158.174 68.48C157.32 69.0133 156.374 69.48 155.334 69.88C154.294 70.28 153.107 70.48 151.774 70.48ZM145.654 58.72H156.054C156.054 56.7467 155.627 55.2533 154.774 54.24C153.947 53.2 152.774 52.68 151.254 52.68C150.56 52.68 149.894 52.8133 149.254 53.08C148.64 53.3467 148.08 53.7467 147.574 54.28C147.067 54.7867 146.64 55.4133 146.294 56.16C145.974 56.9067 145.76 57.76 145.654 58.72ZM163.918 70V50.56H166.638L166.918 54.08H167.038C167.704 52.8533 168.504 51.88 169.438 51.16C170.398 50.44 171.438 50.08 172.558 50.08C173.331 50.08 174.024 50.2133 174.638 50.48L173.998 53.36C173.678 53.2533 173.384 53.1733 173.118 53.12C172.851 53.0667 172.518 53.04 172.118 53.04C171.291 53.04 170.424 53.3733 169.518 54.04C168.638 54.7067 167.864 55.8667 167.198 57.52V70H163.918ZM176.045 64.76V61.92L184.485 58.8L189.845 56.8V56.64L184.485 54.64L176.045 51.52V48.68L193.205 55.4V58.04L176.045 64.76Z" fill="#00FFD1"/>
<path d="M406.926 76.76L389.766 70.04V67.4L406.926 60.68V63.52L398.486 66.64L393.126 68.64V68.8L398.486 70.8L406.926 73.92V76.76ZM411.748 82V62.56H414.468L414.748 65.36H414.868C415.802 64.4267 416.775 63.6533 417.788 63.04C418.828 62.4 420.028 62.08 421.388 62.08C423.442 62.08 424.935 62.72 425.868 64C426.828 65.28 427.308 67.1733 427.308 69.68V82H424.028V70.12C424.028 68.28 423.735 66.96 423.148 66.16C422.562 65.3333 421.628 64.92 420.348 64.92C419.335 64.92 418.442 65.1733 417.668 65.68C416.895 66.1867 416.015 66.9333 415.028 67.92V82H411.748ZM438.283 82.48C436.657 82.48 435.297 82 434.203 81.04C433.137 80.08 432.603 78.72 432.603 76.96C432.603 74.8267 433.55 73.2 435.443 72.08C437.337 70.9333 440.363 70.1333 444.523 69.68C444.523 69.0667 444.457 68.4667 444.323 67.88C444.217 67.2933 444.017 66.7733 443.723 66.32C443.43 65.8667 443.017 65.5067 442.483 65.24C441.977 64.9467 441.323 64.8 440.523 64.8C439.403 64.8 438.35 65.0133 437.363 65.44C436.377 65.8667 435.497 66.3467 434.723 66.88L433.443 64.6C434.35 64.0133 435.457 63.4533 436.763 62.92C438.07 62.36 439.51 62.08 441.083 62.08C443.457 62.08 445.177 62.8133 446.243 64.28C447.31 65.72 447.843 67.6533 447.843 70.08V82H445.123L444.843 79.68H444.723C443.79 80.4533 442.79 81.12 441.723 81.68C440.657 82.2133 439.51 82.48 438.283 82.48ZM439.243 79.84C440.177 79.84 441.057 79.6267 441.883 79.2C442.71 78.7467 443.59 78.0933 444.523 77.24V71.84C442.897 72.0533 441.523 72.3067 440.403 72.6C439.31 72.8933 438.417 73.24 437.723 73.64C437.057 74.04 436.563 74.5067 436.243 75.04C435.95 75.5467 435.803 76.1067 435.803 76.72C435.803 77.84 436.137 78.64 436.803 79.12C437.47 79.6 438.283 79.84 439.243 79.84ZM458.34 82L451.34 62.56H454.74L458.42 73.6C458.713 74.56 459.006 75.52 459.3 76.48C459.62 77.44 459.926 78.3867 460.22 79.32H460.38C460.673 78.3867 460.966 77.44 461.26 76.48C461.553 75.52 461.846 74.56 462.14 73.6L465.82 62.56H469.06L462.18 82H458.34ZM471.072 76.76V73.92L479.512 70.8L484.872 68.8V68.64L479.512 66.64L471.072 63.52V60.68L488.232 67.4V70.04L471.072 76.76Z" fill="#FFC661"/>
<path d="M54.6752 806.76L37.5152 800.04V797.4L54.6752 790.68V793.52L46.2352 796.64L40.8752 798.64V798.8L46.2352 800.8L54.6752 803.92V806.76ZM60.058 812V795.24H57.418V792.76L60.058 792.56V789.48C60.058 787.48 60.5113 785.907 61.418 784.76C62.3513 783.613 63.7913 783.04 65.738 783.04C66.3513 783.04 66.9246 783.107 67.458 783.24C68.018 783.347 68.5246 783.493 68.978 783.68L68.258 786.2C67.538 785.88 66.8046 785.72 66.058 785.72C64.2446 785.72 63.338 786.973 63.338 789.48V792.56H67.458V795.24H63.338V812H60.058ZM78.527 812.48C77.327 812.48 76.1804 812.253 75.087 811.8C74.0204 811.347 73.0737 810.693 72.247 809.84C71.4204 808.96 70.7537 807.893 70.247 806.64C69.767 805.36 69.527 803.92 69.527 802.32C69.527 800.693 69.767 799.253 70.247 798C70.7537 796.72 71.4204 795.64 72.247 794.76C73.0737 793.88 74.0204 793.213 75.087 792.76C76.1804 792.307 77.327 792.08 78.527 792.08C79.727 792.08 80.8604 792.307 81.927 792.76C83.0204 793.213 83.9804 793.88 84.807 794.76C85.6337 795.64 86.287 796.72 86.767 798C87.2737 799.253 87.527 800.693 87.527 802.32C87.527 803.92 87.2737 805.36 86.767 806.64C86.287 807.893 85.6337 808.96 84.807 809.84C83.9804 810.693 83.0204 811.347 81.927 811.8C80.8604 812.253 79.727 812.48 78.527 812.48ZM78.527 809.76C79.3537 809.76 80.1137 809.587 80.807 809.24C81.5004 808.867 82.087 808.36 82.567 807.72C83.0737 807.053 83.4604 806.267 83.727 805.36C83.9937 804.453 84.127 803.44 84.127 802.32C84.127 801.2 83.9937 800.187 83.727 799.28C83.4604 798.347 83.0737 797.547 82.567 796.88C82.087 796.213 81.5004 795.707 80.807 795.36C80.1137 794.987 79.3537 794.8 78.527 794.8C77.7004 794.8 76.9404 794.987 76.247 795.36C75.5537 795.707 74.9537 796.213 74.447 796.88C73.967 797.547 73.5937 798.347 73.327 799.28C73.0604 800.187 72.927 801.2 72.927 802.32C72.927 803.44 73.0604 804.453 73.327 805.36C73.5937 806.267 73.967 807.053 74.447 807.72C74.9537 808.36 75.5537 808.867 76.247 809.24C76.9404 809.587 77.7004 809.76 78.527 809.76ZM100.387 812.48C99.1867 812.48 98.0401 812.253 96.9467 811.8C95.8801 811.347 94.9334 810.693 94.1067 809.84C93.2801 808.96 92.6134 807.893 92.1067 806.64C91.6267 805.36 91.3867 803.92 91.3867 802.32C91.3867 800.693 91.6267 799.253 92.1067 798C92.6134 796.72 93.2801 795.64 94.1067 794.76C94.9334 793.88 95.8801 793.213 96.9467 792.76C98.0401 792.307 99.1867 792.08 100.387 792.08C101.587 792.08 102.72 792.307 103.787 792.76C104.88 793.213 105.84 793.88 106.667 794.76C107.493 795.64 108.147 796.72 108.627 798C109.133 799.253 109.387 800.693 109.387 802.32C109.387 803.92 109.133 805.36 108.627 806.64C108.147 807.893 107.493 808.96 106.667 809.84C105.84 810.693 104.88 811.347 103.787 811.8C102.72 812.253 101.587 812.48 100.387 812.48ZM100.387 809.76C101.213 809.76 101.973 809.587 102.667 809.24C103.36 808.867 103.947 808.36 104.427 807.72C104.933 807.053 105.32 806.267 105.587 805.36C105.853 804.453 105.987 803.44 105.987 802.32C105.987 801.2 105.853 800.187 105.587 799.28C105.32 798.347 104.933 797.547 104.427 796.88C103.947 796.213 103.36 795.707 102.667 795.36C101.973 794.987 101.213 794.8 100.387 794.8C99.5601 794.8 98.8001 794.987 98.1067 795.36C97.4134 795.707 96.8134 796.213 96.3067 796.88C95.8267 797.547 95.4534 798.347 95.1867 799.28C94.9201 800.187 94.7867 801.2 94.7867 802.32C94.7867 803.44 94.9201 804.453 95.1867 805.36C95.4534 806.267 95.8267 807.053 96.3067 807.72C96.8134 808.36 97.4134 808.867 98.1067 809.24C98.8001 809.587 99.5601 809.76 100.387 809.76ZM120.142 812.48C119.102 812.48 118.222 812.32 117.502 812C116.809 811.68 116.236 811.24 115.782 810.68C115.356 810.12 115.049 809.44 114.862 808.64C114.676 807.84 114.582 806.96 114.582 806V795.24H111.702V792.76L114.742 792.56L115.142 787.12H117.902V792.56H123.142V795.24H117.902V806.04C117.902 807.24 118.116 808.173 118.542 808.84C118.996 809.48 119.782 809.8 120.902 809.8C121.249 809.8 121.622 809.747 122.022 809.64C122.422 809.533 122.782 809.413 123.102 809.28L123.742 811.76C123.209 811.947 122.622 812.107 121.982 812.24C121.369 812.4 120.756 812.48 120.142 812.48ZM135.051 812.48C133.744 812.48 132.518 812.253 131.371 811.8C130.251 811.32 129.264 810.653 128.411 809.8C127.584 808.92 126.931 807.853 126.451 806.6C125.971 805.347 125.731 803.92 125.731 802.32C125.731 800.72 125.971 799.293 126.451 798.04C126.958 796.76 127.611 795.68 128.411 794.8C129.238 793.92 130.171 793.253 131.211 792.8C132.251 792.32 133.331 792.08 134.451 792.08C135.678 792.08 136.771 792.293 137.731 792.72C138.718 793.147 139.531 793.76 140.171 794.56C140.838 795.36 141.344 796.32 141.691 797.44C142.038 798.56 142.211 799.813 142.211 801.2C142.211 801.547 142.198 801.893 142.171 802.24C142.171 802.56 142.144 802.84 142.091 803.08H128.971C129.104 805.16 129.744 806.813 130.891 808.04C132.064 809.24 133.584 809.84 135.451 809.84C136.384 809.84 137.238 809.707 138.011 809.44C138.811 809.147 139.571 808.773 140.291 808.32L141.451 810.48C140.598 811.013 139.651 811.48 138.611 811.88C137.571 812.28 136.384 812.48 135.051 812.48ZM128.931 800.72H139.331C139.331 798.747 138.904 797.253 138.051 796.24C137.224 795.2 136.051 794.68 134.531 794.68C133.838 794.68 133.171 794.813 132.531 795.08C131.918 795.347 131.358 795.747 130.851 796.28C130.344 796.787 129.918 797.413 129.571 798.16C129.251 798.907 129.038 799.76 128.931 800.72ZM147.195 812V792.56H149.915L150.195 796.08H150.315C150.982 794.853 151.782 793.88 152.715 793.16C153.675 792.44 154.715 792.08 155.835 792.08C156.608 792.08 157.302 792.213 157.915 792.48L157.275 795.36C156.955 795.253 156.662 795.173 156.395 795.12C156.128 795.067 155.795 795.04 155.395 795.04C154.568 795.04 153.702 795.373 152.795 796.04C151.915 796.707 151.142 797.867 150.475 799.52V812H147.195ZM159.322 806.76V803.92L167.762 800.8L173.122 798.8V798.64L167.762 796.64L159.322 793.52V790.68L176.482 797.4V800.04L159.322 806.76Z" fill="#00FFD1"/>
<path d="M54.6677 178.76L37.5077 172.04V169.4L54.6677 162.68V165.52L46.2277 168.64L40.8677 170.64V170.8L46.2277 172.8L54.6677 175.92V178.76ZM59.4905 184V164.56H62.2105L62.4905 167.36H62.6105C63.4638 166.427 64.3838 165.653 65.3705 165.04C66.3838 164.4 67.4771 164.08 68.6505 164.08C70.1438 164.08 71.3038 164.413 72.1305 165.08C72.9838 165.72 73.6105 166.627 74.0105 167.8C75.0238 166.68 76.0371 165.787 77.0505 165.12C78.0905 164.427 79.2105 164.08 80.4105 164.08C82.4105 164.08 83.8905 164.72 84.8505 166C85.8371 167.28 86.3305 169.173 86.3305 171.68V184H83.0505V172.12C83.0505 170.28 82.7571 168.96 82.1705 168.16C81.5838 167.333 80.6771 166.92 79.4505 166.92C77.9838 166.92 76.3571 167.92 74.5705 169.92V184H71.2905V172.12C71.2905 170.28 70.9971 168.96 70.4105 168.16C69.8238 167.333 68.9038 166.92 67.6505 166.92C66.1838 166.92 64.5571 167.92 62.7705 169.92V184H59.4905ZM97.3145 184.48C95.6879 184.48 94.3279 184 93.2345 183.04C92.1679 182.08 91.6345 180.72 91.6345 178.96C91.6345 176.827 92.5812 175.2 94.4745 174.08C96.3679 172.933 99.3945 172.133 103.555 171.68C103.555 171.067 103.488 170.467 103.355 169.88C103.248 169.293 103.048 168.773 102.755 168.32C102.461 167.867 102.048 167.507 101.515 167.24C101.008 166.947 100.355 166.8 99.5545 166.8C98.4345 166.8 97.3812 167.013 96.3945 167.44C95.4079 167.867 94.5279 168.347 93.7545 168.88L92.4745 166.6C93.3812 166.013 94.4879 165.453 95.7945 164.92C97.1012 164.36 98.5412 164.08 100.115 164.08C102.488 164.08 104.208 164.813 105.275 166.28C106.341 167.72 106.875 169.653 106.875 172.08V184H104.155L103.875 181.68H103.755C102.821 182.453 101.821 183.12 100.755 183.68C99.6879 184.213 98.5412 184.48 97.3145 184.48ZM98.2745 181.84C99.2079 181.84 100.088 181.627 100.915 181.2C101.741 180.747 102.621 180.093 103.555 179.24V173.84C101.928 174.053 100.555 174.307 99.4345 174.6C98.3412 174.893 97.4479 175.24 96.7545 175.64C96.0879 176.04 95.5945 176.507 95.2745 177.04C94.9812 177.547 94.8345 178.107 94.8345 178.72C94.8345 179.84 95.1679 180.64 95.8345 181.12C96.5012 181.6 97.3145 181.84 98.2745 181.84ZM113.171 184V164.56H116.451V184H113.171ZM114.851 160.56C114.211 160.56 113.664 160.36 113.211 159.96C112.784 159.56 112.571 159.053 112.571 158.44C112.571 157.8 112.784 157.293 113.211 156.92C113.664 156.52 114.211 156.32 114.851 156.32C115.491 156.32 116.024 156.52 116.451 156.92C116.904 157.293 117.131 157.8 117.131 158.44C117.131 159.053 116.904 159.56 116.451 159.96C116.024 160.36 115.491 160.56 114.851 160.56ZM123.195 184V164.56H125.915L126.195 167.36H126.315C127.248 166.427 128.221 165.653 129.235 165.04C130.275 164.4 131.475 164.08 132.835 164.08C134.888 164.08 136.381 164.72 137.315 166C138.275 167.28 138.755 169.173 138.755 171.68V184H135.475V172.12C135.475 170.28 135.181 168.96 134.595 168.16C134.008 167.333 133.075 166.92 131.795 166.92C130.781 166.92 129.888 167.173 129.115 167.68C128.341 168.187 127.461 168.933 126.475 169.92V184H123.195ZM143.33 178.76V175.92L151.77 172.8L157.13 170.8V170.64L151.77 168.64L143.33 165.52V162.68L160.49 169.4V172.04L143.33 178.76Z" fill="#00FFD1"/>
<path d="M83.5852 300.76L66.4252 294.04V291.4L83.5852 284.68V287.52L75.1452 290.64L69.7852 292.64V292.8L75.1452 294.8L83.5852 297.92V300.76ZM92.888 306.48C91.2613 306.48 89.9013 306 88.808 305.04C87.7413 304.08 87.208 302.72 87.208 300.96C87.208 298.827 88.1546 297.2 90.048 296.08C91.9413 294.933 94.968 294.133 99.128 293.68C99.128 293.067 99.0613 292.467 98.928 291.88C98.8213 291.293 98.6213 290.773 98.328 290.32C98.0346 289.867 97.6213 289.507 97.088 289.24C96.5813 288.947 95.928 288.8 95.128 288.8C94.008 288.8 92.9546 289.013 91.968 289.44C90.9813 289.867 90.1013 290.347 89.328 290.88L88.048 288.6C88.9546 288.013 90.0613 287.453 91.368 286.92C92.6746 286.36 94.1146 286.08 95.688 286.08C98.0613 286.08 99.7813 286.813 100.848 288.28C101.915 289.72 102.448 291.653 102.448 294.08V306H99.728L99.448 303.68H99.328C98.3946 304.453 97.3946 305.12 96.328 305.68C95.2613 306.213 94.1146 306.48 92.888 306.48ZM93.848 303.84C94.7813 303.84 95.6613 303.627 96.488 303.2C97.3146 302.747 98.1946 302.093 99.128 301.24V295.84C97.5013 296.053 96.128 296.307 95.008 296.6C93.9146 296.893 93.0213 297.24 92.328 297.64C91.6613 298.04 91.168 298.507 90.848 299.04C90.5546 299.547 90.408 300.107 90.408 300.72C90.408 301.84 90.7413 302.64 91.408 303.12C92.0746 303.6 92.888 303.84 93.848 303.84ZM108.744 306V286.56H111.464L111.744 290.08H111.864C112.531 288.853 113.331 287.88 114.264 287.16C115.224 286.44 116.264 286.08 117.384 286.08C118.158 286.08 118.851 286.213 119.464 286.48L118.824 289.36C118.504 289.253 118.211 289.173 117.944 289.12C117.678 289.067 117.344 289.04 116.944 289.04C116.118 289.04 115.251 289.373 114.344 290.04C113.464 290.707 112.691 291.867 112.024 293.52V306H108.744ZM128.911 306.48C127.871 306.48 126.991 306.32 126.271 306C125.578 305.68 125.005 305.24 124.551 304.68C124.125 304.12 123.818 303.44 123.631 302.64C123.445 301.84 123.351 300.96 123.351 300V289.24H120.471V286.76L123.511 286.56L123.911 281.12H126.671V286.56H131.911V289.24H126.671V300.04C126.671 301.24 126.885 302.173 127.311 302.84C127.765 303.48 128.551 303.8 129.671 303.8C130.018 303.8 130.391 303.747 130.791 303.64C131.191 303.533 131.551 303.413 131.871 303.28L132.511 305.76C131.978 305.947 131.391 306.107 130.751 306.24C130.138 306.4 129.525 306.48 128.911 306.48ZM136.487 306V286.56H139.767V306H136.487ZM138.167 282.56C137.527 282.56 136.98 282.36 136.527 281.96C136.1 281.56 135.887 281.053 135.887 280.44C135.887 279.8 136.1 279.293 136.527 278.92C136.98 278.52 137.527 278.32 138.167 278.32C138.807 278.32 139.34 278.52 139.767 278.92C140.22 279.293 140.447 279.8 140.447 280.44C140.447 281.053 140.22 281.56 139.767 281.96C139.34 282.36 138.807 282.56 138.167 282.56ZM154.191 306.48C152.911 306.48 151.711 306.253 150.591 305.8C149.471 305.347 148.497 304.693 147.671 303.84C146.871 302.96 146.231 301.893 145.751 300.64C145.297 299.36 145.071 297.92 145.071 296.32C145.071 294.693 145.324 293.253 145.831 292C146.337 290.72 147.017 289.64 147.871 288.76C148.724 287.88 149.711 287.213 150.831 286.76C151.977 286.307 153.177 286.08 154.431 286.08C155.711 286.08 156.804 286.307 157.711 286.76C158.617 287.213 159.417 287.747 160.111 288.36L158.431 290.52C157.871 290.013 157.271 289.6 156.631 289.28C156.017 288.96 155.324 288.8 154.551 288.8C153.671 288.8 152.857 288.987 152.111 289.36C151.364 289.707 150.724 290.213 150.191 290.88C149.657 291.547 149.231 292.347 148.911 293.28C148.617 294.187 148.471 295.2 148.471 296.32C148.471 297.44 148.617 298.453 148.911 299.36C149.204 300.267 149.604 301.053 150.111 301.72C150.644 302.36 151.284 302.867 152.031 303.24C152.777 303.587 153.591 303.76 154.471 303.76C155.377 303.76 156.204 303.573 156.951 303.2C157.724 302.8 158.417 302.333 159.031 301.8L160.471 304C159.591 304.773 158.617 305.387 157.551 305.84C156.484 306.267 155.364 306.48 154.191 306.48ZM168.413 306.48C167.16 306.48 166.266 306.107 165.733 305.36C165.2 304.613 164.933 303.52 164.933 302.08V277.52H168.213V302.32C168.213 302.853 168.306 303.227 168.493 303.44C168.68 303.653 168.893 303.76 169.133 303.76C169.24 303.76 169.333 303.76 169.413 303.76C169.52 303.76 169.666 303.733 169.853 303.68L170.293 306.16C170.08 306.267 169.826 306.347 169.533 306.4C169.24 306.453 168.866 306.48 168.413 306.48ZM183.188 306.48C181.882 306.48 180.655 306.253 179.508 305.8C178.388 305.32 177.402 304.653 176.548 303.8C175.722 302.92 175.068 301.853 174.588 300.6C174.108 299.347 173.868 297.92 173.868 296.32C173.868 294.72 174.108 293.293 174.588 292.04C175.095 290.76 175.748 289.68 176.548 288.8C177.375 287.92 178.308 287.253 179.348 286.8C180.388 286.32 181.468 286.08 182.588 286.08C183.815 286.08 184.908 286.293 185.868 286.72C186.855 287.147 187.668 287.76 188.308 288.56C188.975 289.36 189.482 290.32 189.828 291.44C190.175 292.56 190.348 293.813 190.348 295.2C190.348 295.547 190.335 295.893 190.308 296.24C190.308 296.56 190.282 296.84 190.228 297.08H177.108C177.242 299.16 177.882 300.813 179.028 302.04C180.202 303.24 181.722 303.84 183.588 303.84C184.522 303.84 185.375 303.707 186.148 303.44C186.948 303.147 187.708 302.773 188.428 302.32L189.588 304.48C188.735 305.013 187.788 305.48 186.748 305.88C185.708 306.28 184.522 306.48 183.188 306.48ZM177.068 294.72H187.468C187.468 292.747 187.042 291.253 186.188 290.24C185.362 289.2 184.188 288.68 182.668 288.68C181.975 288.68 181.308 288.813 180.668 289.08C180.055 289.347 179.495 289.747 178.988 290.28C178.482 290.787 178.055 291.413 177.708 292.16C177.388 292.907 177.175 293.76 177.068 294.72ZM193.412 300.76V297.92L201.852 294.8L207.212 292.8V292.64L201.852 290.64L193.412 287.52V284.68L210.572 291.4V294.04L193.412 300.76Z" fill="#5AB2FA"/>
<path d="M557.703 186.76L540.543 180.04V177.4L557.703 170.68V173.52L549.263 176.64L543.903 178.64V178.8L549.263 180.8L557.703 183.92V186.76ZM567.005 192.48C565.379 192.48 564.019 192 562.925 191.04C561.859 190.08 561.325 188.72 561.325 186.96C561.325 184.827 562.272 183.2 564.165 182.08C566.059 180.933 569.085 180.133 573.245 179.68C573.245 179.067 573.179 178.467 573.045 177.88C572.939 177.293 572.739 176.773 572.445 176.32C572.152 175.867 571.739 175.507 571.205 175.24C570.699 174.947 570.045 174.8 569.245 174.8C568.125 174.8 567.072 175.013 566.085 175.44C565.099 175.867 564.219 176.347 563.445 176.88L562.165 174.6C563.072 174.013 564.179 173.453 565.485 172.92C566.792 172.36 568.232 172.08 569.805 172.08C572.179 172.08 573.899 172.813 574.965 174.28C576.032 175.72 576.565 177.653 576.565 180.08V192H573.845L573.565 189.68H573.445C572.512 190.453 571.512 191.12 570.445 191.68C569.379 192.213 568.232 192.48 567.005 192.48ZM567.965 189.84C568.899 189.84 569.779 189.627 570.605 189.2C571.432 188.747 572.312 188.093 573.245 187.24V181.84C571.619 182.053 570.245 182.307 569.125 182.6C568.032 182.893 567.139 183.24 566.445 183.64C565.779 184.04 565.285 184.507 564.965 185.04C564.672 185.547 564.525 186.107 564.525 186.72C564.525 187.84 564.859 188.64 565.525 189.12C566.192 189.6 567.005 189.84 567.965 189.84ZM587.942 192.48C586.555 192.48 585.235 192.227 583.982 191.72C582.728 191.213 581.635 190.573 580.702 189.8L582.342 187.6C583.195 188.293 584.062 188.853 584.942 189.28C585.848 189.707 586.888 189.92 588.062 189.92C589.342 189.92 590.302 189.627 590.942 189.04C591.582 188.453 591.902 187.733 591.902 186.88C591.902 186.373 591.768 185.933 591.502 185.56C591.235 185.187 590.888 184.867 590.462 184.6C590.062 184.307 589.595 184.053 589.062 183.84C588.528 183.627 587.995 183.413 587.462 183.2C586.768 182.96 586.075 182.693 585.382 182.4C584.688 182.08 584.062 181.707 583.502 181.28C582.968 180.827 582.528 180.307 582.182 179.72C581.835 179.133 581.662 178.427 581.662 177.6C581.662 176.827 581.808 176.107 582.102 175.44C582.422 174.747 582.862 174.16 583.422 173.68C584.008 173.173 584.715 172.787 585.542 172.52C586.368 172.227 587.302 172.08 588.342 172.08C589.568 172.08 590.688 172.293 591.702 172.72C592.742 173.147 593.635 173.667 594.382 174.28L592.822 176.36C592.155 175.853 591.462 175.44 590.742 175.12C590.022 174.8 589.235 174.64 588.382 174.64C587.155 174.64 586.248 174.92 585.662 175.48C585.102 176.04 584.822 176.693 584.822 177.44C584.822 177.893 584.942 178.293 585.182 178.64C585.422 178.96 585.742 179.253 586.142 179.52C586.542 179.76 586.995 179.987 587.502 180.2C588.035 180.387 588.582 180.587 589.142 180.8C589.835 181.067 590.528 181.347 591.222 181.64C591.942 181.933 592.582 182.307 593.142 182.76C593.702 183.187 594.155 183.72 594.502 184.36C594.875 185 595.062 185.773 595.062 186.68C595.062 187.48 594.902 188.227 594.582 188.92C594.288 189.613 593.835 190.227 593.222 190.76C592.635 191.293 591.888 191.707 590.982 192C590.102 192.32 589.088 192.48 587.942 192.48ZM599.8 192V172.56H603.08V192H599.8ZM601.48 168.56C600.84 168.56 600.293 168.36 599.84 167.96C599.413 167.56 599.2 167.053 599.2 166.44C599.2 165.8 599.413 165.293 599.84 164.92C600.293 164.52 600.84 164.32 601.48 164.32C602.12 164.32 602.653 164.52 603.08 164.92C603.533 165.293 603.76 165.8 603.76 166.44C603.76 167.053 603.533 167.56 603.08 167.96C602.653 168.36 602.12 168.56 601.48 168.56ZM616.463 192.48C614.01 192.48 612.05 191.6 610.583 189.84C609.143 188.08 608.423 185.573 608.423 182.32C608.423 180.747 608.65 179.333 609.103 178.08C609.583 176.8 610.21 175.72 610.983 174.84C611.757 173.96 612.65 173.28 613.663 172.8C614.677 172.32 615.743 172.08 616.863 172.08C617.983 172.08 618.957 172.28 619.783 172.68C620.61 173.08 621.45 173.627 622.303 174.32L622.143 171V163.52H625.463V192H622.743L622.463 189.72H622.343C621.57 190.467 620.677 191.12 619.663 191.68C618.677 192.213 617.61 192.48 616.463 192.48ZM617.183 189.72C618.09 189.72 618.943 189.507 619.743 189.08C620.543 188.627 621.343 187.947 622.143 187.04V176.88C621.317 176.133 620.517 175.613 619.743 175.32C618.997 175 618.223 174.84 617.423 174.84C616.65 174.84 615.917 175.027 615.223 175.4C614.557 175.747 613.97 176.253 613.463 176.92C612.957 177.56 612.557 178.333 612.263 179.24C611.97 180.147 611.823 181.16 611.823 182.28C611.823 184.627 612.29 186.453 613.223 187.76C614.157 189.067 615.477 189.72 617.183 189.72ZM640.071 192.48C638.764 192.48 637.537 192.253 636.391 191.8C635.271 191.32 634.284 190.653 633.431 189.8C632.604 188.92 631.951 187.853 631.471 186.6C630.991 185.347 630.751 183.92 630.751 182.32C630.751 180.72 630.991 179.293 631.471 178.04C631.977 176.76 632.631 175.68 633.431 174.8C634.257 173.92 635.191 173.253 636.231 172.8C637.271 172.32 638.351 172.08 639.471 172.08C640.697 172.08 641.791 172.293 642.751 172.72C643.737 173.147 644.551 173.76 645.191 174.56C645.857 175.36 646.364 176.32 646.711 177.44C647.057 178.56 647.231 179.813 647.231 181.2C647.231 181.547 647.217 181.893 647.191 182.24C647.191 182.56 647.164 182.84 647.111 183.08H633.991C634.124 185.16 634.764 186.813 635.911 188.04C637.084 189.24 638.604 189.84 640.471 189.84C641.404 189.84 642.257 189.707 643.031 189.44C643.831 189.147 644.591 188.773 645.311 188.32L646.471 190.48C645.617 191.013 644.671 191.48 643.631 191.88C642.591 192.28 641.404 192.48 640.071 192.48ZM633.951 180.72H644.351C644.351 178.747 643.924 177.253 643.071 176.24C642.244 175.2 641.071 174.68 639.551 174.68C638.857 174.68 638.191 174.813 637.551 175.08C636.937 175.347 636.377 175.747 635.871 176.28C635.364 176.787 634.937 177.413 634.591 178.16C634.271 178.907 634.057 179.76 633.951 180.72ZM650.295 186.76V183.92L658.735 180.8L664.095 178.8V178.64L658.735 176.64L650.295 173.52V170.68L667.455 177.4V180.04L650.295 186.76Z" fill="#FFC661"/>
<rect x="20.5" y="20.5" width="704" height="97" stroke="#00FFD1" stroke-width="5"/>
<rect x="20.5" y="135.5" width="704" height="612" stroke="#00FFD1" stroke-width="5"/>
<rect x="20.5" y="764.5" width="704" height="67" stroke="#00FFD1" stroke-width="5"/>
<rect x="375.5" y="38.5" width="334" height="65" stroke="#FFC661" stroke-width="5"/>
<rect x="51.5" y="262.5" width="403" height="105" stroke="#5AB2FA" stroke-width="5"/>
<path d="M83.5852 531.76L66.4252 525.04V522.4L83.5852 515.68V518.52L75.1452 521.64L69.7852 523.64V523.8L75.1452 525.8L83.5852 528.92V531.76ZM92.888 537.48C91.2613 537.48 89.9013 537 88.808 536.04C87.7413 535.08 87.208 533.72 87.208 531.96C87.208 529.827 88.1546 528.2 90.048 527.08C91.9413 525.933 94.968 525.133 99.128 524.68C99.128 524.067 99.0613 523.467 98.928 522.88C98.8213 522.293 98.6213 521.773 98.328 521.32C98.0346 520.867 97.6213 520.507 97.088 520.24C96.5813 519.947 95.928 519.8 95.128 519.8C94.008 519.8 92.9546 520.013 91.968 520.44C90.9813 520.867 90.1013 521.347 89.328 521.88L88.048 519.6C88.9546 519.013 90.0613 518.453 91.368 517.92C92.6746 517.36 94.1146 517.08 95.688 517.08C98.0613 517.08 99.7813 517.813 100.848 519.28C101.915 520.72 102.448 522.653 102.448 525.08V537H99.728L99.448 534.68H99.328C98.3946 535.453 97.3946 536.12 96.328 536.68C95.2613 537.213 94.1146 537.48 92.888 537.48ZM93.848 534.84C94.7813 534.84 95.6613 534.627 96.488 534.2C97.3146 533.747 98.1946 533.093 99.128 532.24V526.84C97.5013 527.053 96.128 527.307 95.008 527.6C93.9146 527.893 93.0213 528.24 92.328 528.64C91.6613 529.04 91.168 529.507 90.848 530.04C90.5546 530.547 90.408 531.107 90.408 531.72C90.408 532.84 90.7413 533.64 91.408 534.12C92.0746 534.6 92.888 534.84 93.848 534.84ZM108.744 537V517.56H111.464L111.744 521.08H111.864C112.531 519.853 113.331 518.88 114.264 518.16C115.224 517.44 116.264 517.08 117.384 517.08C118.158 517.08 118.851 517.213 119.464 517.48L118.824 520.36C118.504 520.253 118.211 520.173 117.944 520.12C117.678 520.067 117.344 520.04 116.944 520.04C116.118 520.04 115.251 520.373 114.344 521.04C113.464 521.707 112.691 522.867 112.024 524.52V537H108.744ZM128.911 537.48C127.871 537.48 126.991 537.32 126.271 537C125.578 536.68 125.005 536.24 124.551 535.68C124.125 535.12 123.818 534.44 123.631 533.64C123.445 532.84 123.351 531.96 123.351 531V520.24H120.471V517.76L123.511 517.56L123.911 512.12H126.671V517.56H131.911V520.24H126.671V531.04C126.671 532.24 126.885 533.173 127.311 533.84C127.765 534.48 128.551 534.8 129.671 534.8C130.018 534.8 130.391 534.747 130.791 534.64C131.191 534.533 131.551 534.413 131.871 534.28L132.511 536.76C131.978 536.947 131.391 537.107 130.751 537.24C130.138 537.4 129.525 537.48 128.911 537.48ZM136.487 537V517.56H139.767V537H136.487ZM138.167 513.56C137.527 513.56 136.98 513.36 136.527 512.96C136.1 512.56 135.887 512.053 135.887 511.44C135.887 510.8 136.1 510.293 136.527 509.92C136.98 509.52 137.527 509.32 138.167 509.32C138.807 509.32 139.34 509.52 139.767 509.92C140.22 510.293 140.447 510.8 140.447 511.44C140.447 512.053 140.22 512.56 139.767 512.96C139.34 513.36 138.807 513.56 138.167 513.56ZM154.191 537.48C152.911 537.48 151.711 537.253 150.591 536.8C149.471 536.347 148.497 535.693 147.671 534.84C146.871 533.96 146.231 532.893 145.751 531.64C145.297 530.36 145.071 528.92 145.071 527.32C145.071 525.693 145.324 524.253 145.831 523C146.337 521.72 147.017 520.64 147.871 519.76C148.724 518.88 149.711 518.213 150.831 517.76C151.977 517.307 153.177 517.08 154.431 517.08C155.711 517.08 156.804 517.307 157.711 517.76C158.617 518.213 159.417 518.747 160.111 519.36L158.431 521.52C157.871 521.013 157.271 520.6 156.631 520.28C156.017 519.96 155.324 519.8 154.551 519.8C153.671 519.8 152.857 519.987 152.111 520.36C151.364 520.707 150.724 521.213 150.191 521.88C149.657 522.547 149.231 523.347 148.911 524.28C148.617 525.187 148.471 526.2 148.471 527.32C148.471 528.44 148.617 529.453 148.911 530.36C149.204 531.267 149.604 532.053 150.111 532.72C150.644 533.36 151.284 533.867 152.031 534.24C152.777 534.587 153.591 534.76 154.471 534.76C155.377 534.76 156.204 534.573 156.951 534.2C157.724 533.8 158.417 533.333 159.031 532.8L160.471 535C159.591 535.773 158.617 536.387 157.551 536.84C156.484 537.267 155.364 537.48 154.191 537.48ZM168.413 537.48C167.16 537.48 166.266 537.107 165.733 536.36C165.2 535.613 164.933 534.52 164.933 533.08V508.52H168.213V533.32C168.213 533.853 168.306 534.227 168.493 534.44C168.68 534.653 168.893 534.76 169.133 534.76C169.24 534.76 169.333 534.76 169.413 534.76C169.52 534.76 169.666 534.733 169.853 534.68L170.293 537.16C170.08 537.267 169.826 537.347 169.533 537.4C169.24 537.453 168.866 537.48 168.413 537.48ZM183.188 537.48C181.882 537.48 180.655 537.253 179.508 536.8C178.388 536.32 177.402 535.653 176.548 534.8C175.722 533.92 175.068 532.853 174.588 531.6C174.108 530.347 173.868 528.92 173.868 527.32C173.868 525.72 174.108 524.293 174.588 523.04C175.095 521.76 175.748 520.68 176.548 519.8C177.375 518.92 178.308 518.253 179.348 517.8C180.388 517.32 181.468 517.08 182.588 517.08C183.815 517.08 184.908 517.293 185.868 517.72C186.855 518.147 187.668 518.76 188.308 519.56C188.975 520.36 189.482 521.32 189.828 522.44C190.175 523.56 190.348 524.813 190.348 526.2C190.348 526.547 190.335 526.893 190.308 527.24C190.308 527.56 190.282 527.84 190.228 528.08H177.108C177.242 530.16 177.882 531.813 179.028 533.04C180.202 534.24 181.722 534.84 183.588 534.84C184.522 534.84 185.375 534.707 186.148 534.44C186.948 534.147 187.708 533.773 188.428 533.32L189.588 535.48C188.735 536.013 187.788 536.48 186.748 536.88C185.708 537.28 184.522 537.48 183.188 537.48ZM177.068 525.72H187.468C187.468 523.747 187.042 522.253 186.188 521.24C185.362 520.2 184.188 519.68 182.668 519.68C181.975 519.68 181.308 519.813 180.668 520.08C180.055 520.347 179.495 520.747 178.988 521.28C178.482 521.787 178.055 522.413 177.708 523.16C177.388 523.907 177.175 524.76 177.068 525.72ZM193.412 531.76V528.92L201.852 525.8L207.212 523.8V523.64L201.852 521.64L193.412 518.52V515.68L210.572 522.4V525.04L193.412 531.76Z" fill="#5AB2FA"/>
<rect x="53.5" y="498.5" width="401" height="105" stroke="#5AB2FA" stroke-width="5"/>
<path d="M83.5852 417.76L66.4252 411.04V408.4L83.5852 401.68V404.52L75.1452 407.64L69.7852 409.64V409.8L75.1452 411.8L83.5852 414.92V417.76ZM92.888 423.48C91.2613 423.48 89.9013 423 88.808 422.04C87.7413 421.08 87.208 419.72 87.208 417.96C87.208 415.827 88.1546 414.2 90.048 413.08C91.9413 411.933 94.968 411.133 99.128 410.68C99.128 410.067 99.0613 409.467 98.928 408.88C98.8213 408.293 98.6213 407.773 98.328 407.32C98.0346 406.867 97.6213 406.507 97.088 406.24C96.5813 405.947 95.928 405.8 95.128 405.8C94.008 405.8 92.9546 406.013 91.968 406.44C90.9813 406.867 90.1013 407.347 89.328 407.88L88.048 405.6C88.9546 405.013 90.0613 404.453 91.368 403.92C92.6746 403.36 94.1146 403.08 95.688 403.08C98.0613 403.08 99.7813 403.813 100.848 405.28C101.915 406.72 102.448 408.653 102.448 411.08V423H99.728L99.448 420.68H99.328C98.3946 421.453 97.3946 422.12 96.328 422.68C95.2613 423.213 94.1146 423.48 92.888 423.48ZM93.848 420.84C94.7813 420.84 95.6613 420.627 96.488 420.2C97.3146 419.747 98.1946 419.093 99.128 418.24V412.84C97.5013 413.053 96.128 413.307 95.008 413.6C93.9146 413.893 93.0213 414.24 92.328 414.64C91.6613 415.04 91.168 415.507 90.848 416.04C90.5546 416.547 90.408 417.107 90.408 417.72C90.408 418.84 90.7413 419.64 91.408 420.12C92.0746 420.6 92.888 420.84 93.848 420.84ZM108.744 423V403.56H111.464L111.744 407.08H111.864C112.531 405.853 113.331 404.88 114.264 404.16C115.224 403.44 116.264 403.08 117.384 403.08C118.158 403.08 118.851 403.213 119.464 403.48L118.824 406.36C118.504 406.253 118.211 406.173 117.944 406.12C117.678 406.067 117.344 406.04 116.944 406.04C116.118 406.04 115.251 406.373 114.344 407.04C113.464 407.707 112.691 408.867 112.024 410.52V423H108.744ZM128.911 423.48C127.871 423.48 126.991 423.32 126.271 423C125.578 422.68 125.005 422.24 124.551 421.68C124.125 421.12 123.818 420.44 123.631 419.64C123.445 418.84 123.351 417.96 123.351 417V406.24H120.471V403.76L123.511 403.56L123.911 398.12H126.671V403.56H131.911V406.24H126.671V417.04C126.671 418.24 126.885 419.173 127.311 419.84C127.765 420.48 128.551 420.8 129.671 420.8C130.018 420.8 130.391 420.747 130.791 420.64C131.191 420.533 131.551 420.413 131.871 420.28L132.511 422.76C131.978 422.947 131.391 423.107 130.751 423.24C130.138 423.4 129.525 423.48 128.911 423.48ZM136.487 423V403.56H139.767V423H136.487ZM138.167 399.56C137.527 399.56 136.98 399.36 136.527 398.96C136.1 398.56 135.887 398.053 135.887 397.44C135.887 396.8 136.1 396.293 136.527 395.92C136.98 395.52 137.527 395.32 138.167 395.32C138.807 395.32 139.34 395.52 139.767 395.92C140.22 396.293 140.447 396.8 140.447 397.44C140.447 398.053 140.22 398.56 139.767 398.96C139.34 399.36 138.807 399.56 138.167 399.56ZM154.191 423.48C152.911 423.48 151.711 423.253 150.591 422.8C149.471 422.347 148.497 421.693 147.671 420.84C146.871 419.96 146.231 418.893 145.751 417.64C145.297 416.36 145.071 414.92 145.071 413.32C145.071 411.693 145.324 410.253 145.831 409C146.337 407.72 147.017 406.64 147.871 405.76C148.724 404.88 149.711 404.213 150.831 403.76C151.977 403.307 153.177 403.08 154.431 403.08C155.711 403.08 156.804 403.307 157.711 403.76C158.617 404.213 159.417 404.747 160.111 405.36L158.431 407.52C157.871 407.013 157.271 406.6 156.631 406.28C156.017 405.96 155.324 405.8 154.551 405.8C153.671 405.8 152.857 405.987 152.111 406.36C151.364 406.707 150.724 407.213 150.191 407.88C149.657 408.547 149.231 409.347 148.911 410.28C148.617 411.187 148.471 412.2 148.471 413.32C148.471 414.44 148.617 415.453 148.911 416.36C149.204 417.267 149.604 418.053 150.111 418.72C150.644 419.36 151.284 419.867 152.031 420.24C152.777 420.587 153.591 420.76 154.471 420.76C155.377 420.76 156.204 420.573 156.951 420.2C157.724 419.8 158.417 419.333 159.031 418.8L160.471 421C159.591 421.773 158.617 422.387 157.551 422.84C156.484 423.267 155.364 423.48 154.191 423.48ZM168.413 423.48C167.16 423.48 166.266 423.107 165.733 422.36C165.2 421.613 164.933 420.52 164.933 419.08V394.52H168.213V419.32C168.213 419.853 168.306 420.227 168.493 420.44C168.68 420.653 168.893 420.76 169.133 420.76C169.24 420.76 169.333 420.76 169.413 420.76C169.52 420.76 169.666 420.733 169.853 420.68L170.293 423.16C170.08 423.267 169.826 423.347 169.533 423.4C169.24 423.453 168.866 423.48 168.413 423.48ZM183.188 423.48C181.882 423.48 180.655 423.253 179.508 422.8C178.388 422.32 177.402 421.653 176.548 420.8C175.722 419.92 175.068 418.853 174.588 417.6C174.108 416.347 173.868 414.92 173.868 413.32C173.868 411.72 174.108 410.293 174.588 409.04C175.095 407.76 175.748 406.68 176.548 405.8C177.375 404.92 178.308 404.253 179.348 403.8C180.388 403.32 181.468 403.08 182.588 403.08C183.815 403.08 184.908 403.293 185.868 403.72C186.855 404.147 187.668 404.76 188.308 405.56C188.975 406.36 189.482 407.32 189.828 408.44C190.175 409.56 190.348 410.813 190.348 412.2C190.348 412.547 190.335 412.893 190.308 413.24C190.308 413.56 190.282 413.84 190.228 414.08H177.108C177.242 416.16 177.882 417.813 179.028 419.04C180.202 420.24 181.722 420.84 183.588 420.84C184.522 420.84 185.375 420.707 186.148 420.44C186.948 420.147 187.708 419.773 188.428 419.32L189.588 421.48C188.735 422.013 187.788 422.48 186.748 422.88C185.708 423.28 184.522 423.48 183.188 423.48ZM177.068 411.72H187.468C187.468 409.747 187.042 408.253 186.188 407.24C185.362 406.2 184.188 405.68 182.668 405.68C181.975 405.68 181.308 405.813 180.668 406.08C180.055 406.347 179.495 406.747 178.988 407.28C178.482 407.787 178.055 408.413 177.708 409.16C177.388 409.907 177.175 410.76 177.068 411.72ZM193.412 417.76V414.92L201.852 411.8L207.212 409.8V409.64L201.852 407.64L193.412 404.52V401.68L210.572 408.4V411.04L193.412 417.76Z" fill="#5AB2FA"/>
<rect x="51.5" y="380.5" width="403" height="105" stroke="#5AB2FA" stroke-width="5"/>
<path d="M540.734 245.76L523.574 239.04V236.4L540.734 229.68V232.52L532.294 235.64L526.934 237.64V237.8L532.294 239.8L540.734 242.92V245.76ZM550.636 251.48C549.25 251.48 547.93 251.227 546.676 250.72C545.423 250.213 544.33 249.573 543.396 248.8L545.036 246.6C545.89 247.293 546.756 247.853 547.636 248.28C548.543 248.707 549.583 248.92 550.756 248.92C552.036 248.92 552.996 248.627 553.636 248.04C554.276 247.453 554.596 246.733 554.596 245.88C554.596 245.373 554.463 244.933 554.196 244.56C553.93 244.187 553.583 243.867 553.156 243.6C552.756 243.307 552.29 243.053 551.756 242.84C551.223 242.627 550.69 242.413 550.156 242.2C549.463 241.96 548.77 241.693 548.076 241.4C547.383 241.08 546.756 240.707 546.196 240.28C545.663 239.827 545.223 239.307 544.876 238.72C544.53 238.133 544.356 237.427 544.356 236.6C544.356 235.827 544.503 235.107 544.796 234.44C545.116 233.747 545.556 233.16 546.116 232.68C546.703 232.173 547.41 231.787 548.236 231.52C549.063 231.227 549.996 231.08 551.036 231.08C552.263 231.08 553.383 231.293 554.396 231.72C555.436 232.147 556.33 232.667 557.076 233.28L555.516 235.36C554.85 234.853 554.156 234.44 553.436 234.12C552.716 233.8 551.93 233.64 551.076 233.64C549.85 233.64 548.943 233.92 548.356 234.48C547.796 235.04 547.516 235.693 547.516 236.44C547.516 236.893 547.636 237.293 547.876 237.64C548.116 237.96 548.436 238.253 548.836 238.52C549.236 238.76 549.69 238.987 550.196 239.2C550.73 239.387 551.276 239.587 551.836 239.8C552.53 240.067 553.223 240.347 553.916 240.64C554.636 240.933 555.276 241.307 555.836 241.76C556.396 242.187 556.85 242.72 557.196 243.36C557.57 244 557.756 244.773 557.756 245.68C557.756 246.48 557.596 247.227 557.276 247.92C556.983 248.613 556.53 249.227 555.916 249.76C555.33 250.293 554.583 250.707 553.676 251C552.796 251.32 551.783 251.48 550.636 251.48ZM570.374 251.48C569.068 251.48 567.841 251.253 566.694 250.8C565.574 250.32 564.588 249.653 563.734 248.8C562.908 247.92 562.254 246.853 561.774 245.6C561.294 244.347 561.054 242.92 561.054 241.32C561.054 239.72 561.294 238.293 561.774 237.04C562.281 235.76 562.934 234.68 563.734 233.8C564.561 232.92 565.494 232.253 566.534 231.8C567.574 231.32 568.654 231.08 569.774 231.08C571.001 231.08 572.094 231.293 573.054 231.72C574.041 232.147 574.854 232.76 575.494 233.56C576.161 234.36 576.668 235.32 577.014 236.44C577.361 237.56 577.534 238.813 577.534 240.2C577.534 240.547 577.521 240.893 577.494 241.24C577.494 241.56 577.468 241.84 577.414 242.08H564.294C564.428 244.16 565.068 245.813 566.214 247.04C567.388 248.24 568.908 248.84 570.774 248.84C571.708 248.84 572.561 248.707 573.334 248.44C574.134 248.147 574.894 247.773 575.614 247.32L576.774 249.48C575.921 250.013 574.974 250.48 573.934 250.88C572.894 251.28 571.708 251.48 570.374 251.48ZM564.254 239.72H574.654C574.654 237.747 574.228 236.253 573.374 235.24C572.548 234.2 571.374 233.68 569.854 233.68C569.161 233.68 568.494 233.813 567.854 234.08C567.241 234.347 566.681 234.747 566.174 235.28C565.668 235.787 565.241 236.413 564.894 237.16C564.574 237.907 564.361 238.76 564.254 239.72ZM590.198 251.48C588.918 251.48 587.718 251.253 586.598 250.8C585.478 250.347 584.505 249.693 583.678 248.84C582.878 247.96 582.238 246.893 581.758 245.64C581.305 244.36 581.078 242.92 581.078 241.32C581.078 239.693 581.331 238.253 581.838 237C582.345 235.72 583.025 234.64 583.878 233.76C584.731 232.88 585.718 232.213 586.838 231.76C587.985 231.307 589.185 231.08 590.438 231.08C591.718 231.08 592.811 231.307 593.718 231.76C594.625 232.213 595.425 232.747 596.118 233.36L594.438 235.52C593.878 235.013 593.278 234.6 592.638 234.28C592.025 233.96 591.331 233.8 590.558 233.8C589.678 233.8 588.865 233.987 588.118 234.36C587.371 234.707 586.731 235.213 586.198 235.88C585.665 236.547 585.238 237.347 584.918 238.28C584.625 239.187 584.478 240.2 584.478 241.32C584.478 242.44 584.625 243.453 584.918 244.36C585.211 245.267 585.611 246.053 586.118 246.72C586.651 247.36 587.291 247.867 588.038 248.24C588.785 248.587 589.598 248.76 590.478 248.76C591.385 248.76 592.211 248.573 592.958 248.2C593.731 247.8 594.425 247.333 595.038 246.8L596.478 249C595.598 249.773 594.625 250.387 593.558 250.84C592.491 251.267 591.371 251.48 590.198 251.48ZM606.67 251.48C605.63 251.48 604.75 251.32 604.03 251C603.336 250.68 602.763 250.24 602.31 249.68C601.883 249.12 601.576 248.44 601.39 247.64C601.203 246.84 601.11 245.96 601.11 245V234.24H598.23V231.76L601.27 231.56L601.67 226.12H604.43V231.56H609.67V234.24H604.43V245.04C604.43 246.24 604.643 247.173 605.07 247.84C605.523 248.48 606.31 248.8 607.43 248.8C607.776 248.8 608.15 248.747 608.55 248.64C608.95 248.533 609.31 248.413 609.63 248.28L610.27 250.76C609.736 250.947 609.15 251.107 608.51 251.24C607.896 251.4 607.283 251.48 606.67 251.48ZM614.245 251V231.56H617.525V251H614.245ZM615.925 227.56C615.285 227.56 614.738 227.36 614.285 226.96C613.858 226.56 613.645 226.053 613.645 225.44C613.645 224.8 613.858 224.293 614.285 223.92C614.738 223.52 615.285 223.32 615.925 223.32C616.565 223.32 617.098 223.52 617.525 223.92C617.978 224.293 618.205 224.8 618.205 225.44C618.205 226.053 617.978 226.56 617.525 226.96C617.098 227.36 616.565 227.56 615.925 227.56ZM631.829 251.48C630.629 251.48 629.482 251.253 628.389 250.8C627.322 250.347 626.376 249.693 625.549 248.84C624.722 247.96 624.056 246.893 623.549 245.64C623.069 244.36 622.829 242.92 622.829 241.32C622.829 239.693 623.069 238.253 623.549 237C624.056 235.72 624.722 234.64 625.549 233.76C626.376 232.88 627.322 232.213 628.389 231.76C629.482 231.307 630.629 231.08 631.829 231.08C633.029 231.08 634.162 231.307 635.229 231.76C636.322 232.213 637.282 232.88 638.109 233.76C638.936 234.64 639.589 235.72 640.069 237C640.576 238.253 640.829 239.693 640.829 241.32C640.829 242.92 640.576 244.36 640.069 245.64C639.589 246.893 638.936 247.96 638.109 248.84C637.282 249.693 636.322 250.347 635.229 250.8C634.162 251.253 633.029 251.48 631.829 251.48ZM631.829 248.76C632.656 248.76 633.416 248.587 634.109 248.24C634.802 247.867 635.389 247.36 635.869 246.72C636.376 246.053 636.762 245.267 637.029 244.36C637.296 243.453 637.429 242.44 637.429 241.32C637.429 240.2 637.296 239.187 637.029 238.28C636.762 237.347 636.376 236.547 635.869 235.88C635.389 235.213 634.802 234.707 634.109 234.36C633.416 233.987 632.656 233.8 631.829 233.8C631.002 233.8 630.242 233.987 629.549 234.36C628.856 234.707 628.256 235.213 627.749 235.88C627.269 236.547 626.896 237.347 626.629 238.28C626.362 239.187 626.229 240.2 626.229 241.32C626.229 242.44 626.362 243.453 626.629 244.36C626.896 245.267 627.269 246.053 627.749 246.72C628.256 247.36 628.856 247.867 629.549 248.24C630.242 248.587 631.002 248.76 631.829 248.76ZM646.129 251V231.56H648.849L649.129 234.36H649.249C650.182 233.427 651.155 232.653 652.169 232.04C653.209 231.4 654.409 231.08 655.769 231.08C657.822 231.08 659.315 231.72 660.249 233C661.209 234.28 661.689 236.173 661.689 238.68V251H658.409V239.12C658.409 237.28 658.115 235.96 657.529 235.16C656.942 234.333 656.009 233.92 654.729 233.92C653.715 233.92 652.822 234.173 652.049 234.68C651.275 235.187 650.395 235.933 649.409 236.92V251H646.129ZM666.264 245.76V242.92L674.704 239.8L680.064 237.8V237.64L674.704 235.64L666.264 232.52V229.68L683.424 236.4V239.04L666.264 245.76Z" fill="#5AB2FA"/>
<rect x="510.5" y="213.5" width="186" height="159" stroke="#5AB2FA" stroke-width="5"/>
<path d="M537.734 423.76L520.574 417.04V414.4L537.734 407.68V410.52L529.294 413.64L523.934 415.64V415.8L529.294 417.8L537.734 420.92V423.76ZM547.636 429.48C546.25 429.48 544.93 429.227 543.676 428.72C542.423 428.213 541.33 427.573 540.396 426.8L542.036 424.6C542.89 425.293 543.756 425.853 544.636 426.28C545.543 426.707 546.583 426.92 547.756 426.92C549.036 426.92 549.996 426.627 550.636 426.04C551.276 425.453 551.596 424.733 551.596 423.88C551.596 423.373 551.463 422.933 551.196 422.56C550.93 422.187 550.583 421.867 550.156 421.6C549.756 421.307 549.29 421.053 548.756 420.84C548.223 420.627 547.69 420.413 547.156 420.2C546.463 419.96 545.77 419.693 545.076 419.4C544.383 419.08 543.756 418.707 543.196 418.28C542.663 417.827 542.223 417.307 541.876 416.72C541.53 416.133 541.356 415.427 541.356 414.6C541.356 413.827 541.503 413.107 541.796 412.44C542.116 411.747 542.556 411.16 543.116 410.68C543.703 410.173 544.41 409.787 545.236 409.52C546.063 409.227 546.996 409.08 548.036 409.08C549.263 409.08 550.383 409.293 551.396 409.72C552.436 410.147 553.33 410.667 554.076 411.28L552.516 413.36C551.85 412.853 551.156 412.44 550.436 412.12C549.716 411.8 548.93 411.64 548.076 411.64C546.85 411.64 545.943 411.92 545.356 412.48C544.796 413.04 544.516 413.693 544.516 414.44C544.516 414.893 544.636 415.293 544.876 415.64C545.116 415.96 545.436 416.253 545.836 416.52C546.236 416.76 546.69 416.987 547.196 417.2C547.73 417.387 548.276 417.587 548.836 417.8C549.53 418.067 550.223 418.347 550.916 418.64C551.636 418.933 552.276 419.307 552.836 419.76C553.396 420.187 553.85 420.72 554.196 421.36C554.57 422 554.756 422.773 554.756 423.68C554.756 424.48 554.596 425.227 554.276 425.92C553.983 426.613 553.53 427.227 552.916 427.76C552.33 428.293 551.583 428.707 550.676 429C549.796 429.32 548.783 429.48 547.636 429.48ZM567.374 429.48C566.068 429.48 564.841 429.253 563.694 428.8C562.574 428.32 561.588 427.653 560.734 426.8C559.908 425.92 559.254 424.853 558.774 423.6C558.294 422.347 558.054 420.92 558.054 419.32C558.054 417.72 558.294 416.293 558.774 415.04C559.281 413.76 559.934 412.68 560.734 411.8C561.561 410.92 562.494 410.253 563.534 409.8C564.574 409.32 565.654 409.08 566.774 409.08C568.001 409.08 569.094 409.293 570.054 409.72C571.041 410.147 571.854 410.76 572.494 411.56C573.161 412.36 573.668 413.32 574.014 414.44C574.361 415.56 574.534 416.813 574.534 418.2C574.534 418.547 574.521 418.893 574.494 419.24C574.494 419.56 574.468 419.84 574.414 420.08H561.294C561.428 422.16 562.068 423.813 563.214 425.04C564.388 426.24 565.908 426.84 567.774 426.84C568.708 426.84 569.561 426.707 570.334 426.44C571.134 426.147 571.894 425.773 572.614 425.32L573.774 427.48C572.921 428.013 571.974 428.48 570.934 428.88C569.894 429.28 568.708 429.48 567.374 429.48ZM561.254 417.72H571.654C571.654 415.747 571.228 414.253 570.374 413.24C569.548 412.2 568.374 411.68 566.854 411.68C566.161 411.68 565.494 411.813 564.854 412.08C564.241 412.347 563.681 412.747 563.174 413.28C562.668 413.787 562.241 414.413 561.894 415.16C561.574 415.907 561.361 416.76 561.254 417.72ZM587.198 429.48C585.918 429.48 584.718 429.253 583.598 428.8C582.478 428.347 581.505 427.693 580.678 426.84C579.878 425.96 579.238 424.893 578.758 423.64C578.305 422.36 578.078 420.92 578.078 419.32C578.078 417.693 578.331 416.253 578.838 415C579.345 413.72 580.025 412.64 580.878 411.76C581.731 410.88 582.718 410.213 583.838 409.76C584.985 409.307 586.185 409.08 587.438 409.08C588.718 409.08 589.811 409.307 590.718 409.76C591.625 410.213 592.425 410.747 593.118 411.36L591.438 413.52C590.878 413.013 590.278 412.6 589.638 412.28C589.025 411.96 588.331 411.8 587.558 411.8C586.678 411.8 585.865 411.987 585.118 412.36C584.371 412.707 583.731 413.213 583.198 413.88C582.665 414.547 582.238 415.347 581.918 416.28C581.625 417.187 581.478 418.2 581.478 419.32C581.478 420.44 581.625 421.453 581.918 422.36C582.211 423.267 582.611 424.053 583.118 424.72C583.651 425.36 584.291 425.867 585.038 426.24C585.785 426.587 586.598 426.76 587.478 426.76C588.385 426.76 589.211 426.573 589.958 426.2C590.731 425.8 591.425 425.333 592.038 424.8L593.478 427C592.598 427.773 591.625 428.387 590.558 428.84C589.491 429.267 588.371 429.48 587.198 429.48ZM603.67 429.48C602.63 429.48 601.75 429.32 601.03 429C600.336 428.68 599.763 428.24 599.31 427.68C598.883 427.12 598.576 426.44 598.39 425.64C598.203 424.84 598.11 423.96 598.11 423V412.24H595.23V409.76L598.27 409.56L598.67 404.12H601.43V409.56H606.67V412.24H601.43V423.04C601.43 424.24 601.643 425.173 602.07 425.84C602.523 426.48 603.31 426.8 604.43 426.8C604.776 426.8 605.15 426.747 605.55 426.64C605.95 426.533 606.31 426.413 606.63 426.28L607.27 428.76C606.736 428.947 606.15 429.107 605.51 429.24C604.896 429.4 604.283 429.48 603.67 429.48ZM611.245 429V409.56H614.525V429H611.245ZM612.925 405.56C612.285 405.56 611.738 405.36 611.285 404.96C610.858 404.56 610.645 404.053 610.645 403.44C610.645 402.8 610.858 402.293 611.285 401.92C611.738 401.52 612.285 401.32 612.925 401.32C613.565 401.32 614.098 401.52 614.525 401.92C614.978 402.293 615.205 402.8 615.205 403.44C615.205 404.053 614.978 404.56 614.525 404.96C614.098 405.36 613.565 405.56 612.925 405.56ZM628.829 429.48C627.629 429.48 626.482 429.253 625.389 428.8C624.322 428.347 623.376 427.693 622.549 426.84C621.722 425.96 621.056 424.893 620.549 423.64C620.069 422.36 619.829 420.92 619.829 419.32C619.829 417.693 620.069 416.253 620.549 415C621.056 413.72 621.722 412.64 622.549 411.76C623.376 410.88 624.322 410.213 625.389 409.76C626.482 409.307 627.629 409.08 628.829 409.08C630.029 409.08 631.162 409.307 632.229 409.76C633.322 410.213 634.282 410.88 635.109 411.76C635.936 412.64 636.589 413.72 637.069 415C637.576 416.253 637.829 417.693 637.829 419.32C637.829 420.92 637.576 422.36 637.069 423.64C636.589 424.893 635.936 425.96 635.109 426.84C634.282 427.693 633.322 428.347 632.229 428.8C631.162 429.253 630.029 429.48 628.829 429.48ZM628.829 426.76C629.656 426.76 630.416 426.587 631.109 426.24C631.802 425.867 632.389 425.36 632.869 424.72C633.376 424.053 633.762 423.267 634.029 422.36C634.296 421.453 634.429 420.44 634.429 419.32C634.429 418.2 634.296 417.187 634.029 416.28C633.762 415.347 633.376 414.547 632.869 413.88C632.389 413.213 631.802 412.707 631.109 412.36C630.416 411.987 629.656 411.8 628.829 411.8C628.002 411.8 627.242 411.987 626.549 412.36C625.856 412.707 625.256 413.213 624.749 413.88C624.269 414.547 623.896 415.347 623.629 416.28C623.362 417.187 623.229 418.2 623.229 419.32C623.229 420.44 623.362 421.453 623.629 422.36C623.896 423.267 624.269 424.053 624.749 424.72C625.256 425.36 625.856 425.867 626.549 426.24C627.242 426.587 628.002 426.76 628.829 426.76ZM643.129 429V409.56H645.849L646.129 412.36H646.249C647.182 411.427 648.155 410.653 649.169 410.04C650.209 409.4 651.409 409.08 652.769 409.08C654.822 409.08 656.315 409.72 657.249 411C658.209 412.28 658.689 414.173 658.689 416.68V429H655.409V417.12C655.409 415.28 655.115 413.96 654.529 413.16C653.942 412.333 653.009 411.92 651.729 411.92C650.715 411.92 649.822 412.173 649.049 412.68C648.275 413.187 647.395 413.933 646.409 414.92V429H643.129ZM663.264 423.76V420.92L671.704 417.8L677.064 415.8V415.64L671.704 413.64L663.264 410.52V407.68L680.424 414.4V417.04L663.264 423.76Z" fill="#5AB2FA"/>
<rect x="510.5" y="390.5" width="186" height="159" stroke="#5AB2FA" stroke-width="5"/>
<rect x="38.5" y="638.5" width="436" height="96" stroke="#FFC661" stroke-width="5"/>
<rect x="36.5" y="200.5" width="436" height="418" stroke="#FFC661" stroke-width="5"/>
<rect x="495.5" y="152.5" width="217" height="582" stroke="#FFC661" stroke-width="5"/>
</svg>
